<svg width="20" height="23" viewBox="0 0 20 23" fill="none" xmlns="http://www.w3.org/2000/svg">
<path d="M2.012 16.4118C1.70534 16.2157 1.45027 15.9322 1.27258 15.59C1.09488 15.2478 1.00085 14.8591 1 14.4631V3.24384C1 2.00973 1.9 1 3 1H13C13.75 1 14.158 1.43194 14.5 2.12192M5 8.47985C5 7.68628 5.28099 6.92521 5.78115 6.36407C6.28131 5.80293 6.95967 5.48768 7.667 5.48768H16.333C16.6832 5.48768 17.03 5.56508 17.3536 5.71545C17.6772 5.86582 17.9712 6.08622 18.2189 6.36407C18.4665 6.64192 18.663 6.97177 18.797 7.3348C18.931 7.69782 19 8.08691 19 8.47985V18.2024C19 18.5954 18.931 18.9844 18.797 19.3475C18.663 19.7105 18.4665 20.0403 18.2189 20.3182C17.9712 20.596 17.6772 20.8164 17.3536 20.9668C17.03 21.1172 16.6832 21.1946 16.333 21.1946H7.667C7.31676 21.1946 6.96996 21.1172 6.64638 20.9668C6.32281 20.8164 6.0288 20.596 5.78115 20.3182C5.53349 20.0403 5.33704 19.7105 5.20301 19.3475C5.06898 18.9844 5 18.5954 5 18.2024V8.47985Z" stroke="#9F003E" stroke-width="2" stroke-linecap="round" stroke-linejoin="round"/>
</svg>
